<svg width="473" height="85" viewBox="0 0 473 85" fill="none" xmlns="http://www.w3.org/2000/svg">
<rect width="473" height="85" fill="white"/>
<path d="M42.2565 66C40.8912 65.872 40.2085 65.7653 40.2085 65.68L28.4965 66H16.2725L10.8325 65.68C10.8325 65.7653 10.1285 65.872 8.7205 66C6.11783 66 3.83517 62.6507 1.8725 55.952C1.01917 52.8373 0.5925 49.2747 0.5925 45.264C0.5925 39.3333 1.33917 33.7227 2.8325 28.432L8.8485 28.304C11.1952 28.304 13.3925 28.4107 15.4405 28.624C17.8298 29.008 19.0245 30.1813 19.0245 32.144L18.7045 35.024C18.4485 36.304 18.3205 37.264 18.3205 37.904C18.2352 40.8053 18.1925 42.9813 18.1925 44.432C18.1925 47.888 18.4058 50.1707 18.8325 51.28C19.1312 51.9627 19.8778 52.304 21.0725 52.304H29.9685C31.1205 52.304 31.8672 51.9627 32.2085 51.28C32.5925 50.1707 32.7845 47.9307 32.7845 44.56C32.7845 43.3227 32.7418 41.232 32.6565 38.288C32.6565 37.9893 32.5712 37.0293 32.4005 35.408C32.1445 34.0853 32.0165 33.1467 32.0165 32.592C32.0165 30.6293 33.1898 29.456 35.5365 29.072C37.6272 28.8587 39.8245 28.752 42.1285 28.752L48.2085 28.88C49.7018 34.128 50.4485 39.632 50.4485 45.392C50.4485 47.568 50.2778 49.872 49.9365 52.304H52.8805V65.936L42.2565 66ZM19.9845 26.448C19.7712 25.8507 19.3018 25.552 18.5765 25.552L11.2165 26.192C10.5765 24.528 10.0645 20.88 9.6805 15.248C9.6805 14.1387 9.8085 13.3067 10.0645 12.752C10.4485 11.8987 11.9418 11.472 14.5445 11.472C16.5498 11.472 18.5125 11.664 20.4325 12.048C21.4992 12.2613 22.2458 12.368 22.6725 12.368C23.6112 12.368 24.2725 12.24 24.6565 11.984C24.9978 15.4827 25.1685 18.8747 25.1685 22.16C25.1685 24.2507 25.1472 25.5307 25.1045 26L19.9845 26.448ZM37.1365 25.36C36.8805 24.8053 36.3898 24.528 35.6645 24.528L28.3045 25.104C27.7072 23.4827 27.2165 19.8347 26.8325 14.16C26.8325 13.0507 26.9605 12.2187 27.2165 11.664C27.5578 10.8533 29.0512 10.448 31.6965 10.448C33.7018 10.448 35.6645 10.64 37.5845 11.024C38.6512 11.2373 39.3978 11.344 39.8245 11.344C40.7632 11.344 41.4245 11.216 41.8085 10.96C42.1498 14.416 42.3205 17.808 42.3205 21.136C42.3205 23.184 42.2992 24.4427 42.2565 24.912L37.1365 25.36ZM55.977 66V65.936L50.345 66V52.304H60.265L61.609 52.24L102.569 51.856C104.19 51.856 105.513 51.7493 106.537 51.536C107.305 50 107.689 48.6347 107.689 47.44C107.689 46.5013 107.476 46.0107 107.049 45.968L99.881 46.096C85.2037 46.096 71.8703 46.0533 59.881 45.968C58.6863 41.8293 57.9397 37.2 57.641 32.08L57.129 26.512C56.489 21.5627 56.169 17.0187 56.169 12.88C56.169 8.82666 56.617 5.88266 57.513 4.048C58.5797 1.70133 62.6757 0.528 69.801 0.528C76.2437 0.528 86.9103 1.33867 101.801 2.96C104.148 3.472 106.516 3.728 108.905 3.728C110.74 3.728 112.489 3.51466 114.153 3.088L115.113 6.416C115.412 12.0907 115.561 16.6773 115.561 20.176C115.476 21.8827 114.964 23.568 114.025 25.232C113.129 26.896 111.508 27.728 109.161 27.728H108.905C92.6063 27.216 83.369 26.96 81.193 26.96C79.5717 26.96 78.2277 27.0667 77.161 27.28C76.4357 29.584 76.073 31.3333 76.073 32.528C76.073 33.4667 76.2863 33.936 76.713 33.936L83.881 33.808C97.321 33.808 107.412 33.7013 114.153 33.488L123.881 34C125.076 38.1387 125.822 42.768 126.121 47.888C126.206 49.7653 126.249 55.5467 126.249 65.232C125.353 65.5307 121.257 65.68 113.961 65.68C95.3157 65.68 81.1077 65.7013 71.337 65.744L55.977 66ZM143.47 84.176C139.289 84.176 135.321 83.8773 131.566 83.28L132.91 69.968C133.849 70.3093 134.979 70.5227 136.302 70.608L141.742 70.928C143.534 70.928 144.985 70.2027 146.094 68.752L147.054 47.248L146.35 21.392C146.521 21.4347 146.883 21.456 147.438 21.456C151.235 21.712 155.673 21.84 160.75 21.84L165.678 22.288V22.416C166.019 25.6587 166.19 29.4987 166.19 33.936C166.19 40.2933 166.105 44.3893 165.934 46.224L165.678 52.304L164.59 66C162.926 77.3493 158.446 83.3013 151.15 83.856C148.505 84.0693 145.945 84.176 143.47 84.176ZM130.158 66H130.03V65.872L130.158 66ZM198.71 66H190.71L185.27 65.68C185.27 65.7653 184.566 65.872 183.158 66C180.555 66 178.273 62.6507 176.31 55.952C175.457 52.8373 175.03 40.528 175.03 19.024C175.03 13.264 175.777 7.76 177.27 2.512L183.286 2.384C185.633 2.384 187.83 2.49067 189.878 2.704C192.267 3.088 193.462 4.24 193.462 6.16L193.142 9.04C192.886 10.3627 192.758 11.3227 192.758 11.92L192.63 18.192C192.63 39.1413 192.843 50.1707 193.27 51.28C193.569 51.9627 194.315 52.304 195.51 52.304H198.71V66ZM213.95 38.48L220.478 38.288L220.67 38.16C220.883 37.008 220.99 35.8987 220.99 34.832L220.798 31.312H220.67C219.774 31.184 218.558 31.12 217.022 31.12C215.699 31.12 214.675 31.2267 213.95 31.44V38.48ZM223.358 66.32C220.84 66.32 216.851 66.2347 211.39 66.064L196.157 66V52.304H202.174C202.302 46.6293 202.43 42.8107 202.558 40.848L202.43 30.8L202.558 21.392L214.526 19.92C217.384 19.92 220.051 19.8347 222.526 19.664C225.043 19.4933 227.582 19.408 230.142 19.408C236.712 19.408 241.192 20.112 243.582 21.52C245.502 22.544 246.462 25.6373 246.462 30.8C246.462 37.3707 244.414 49.104 240.318 66C237.075 66 231.422 66.1067 223.358 66.32ZM282.289 66.256L260.849 66.064L260.593 50.128L278.001 51.216C285.297 51.216 289.947 51.3013 291.953 51.472C292.294 50.576 292.465 47.4827 292.465 42.192C292.465 40.6133 291.974 39.6533 290.993 39.312C289.798 38.8853 286.769 38.672 281.905 38.672C278.321 38.672 275.035 38.7787 272.049 38.992C270.214 39.2053 267.931 39.312 265.201 39.312C262.939 39.312 261.595 38.032 261.169 35.472C260.785 33.168 260.593 30.0747 260.593 26.192C260.593 24.272 260.635 22.5227 260.721 20.944C267.163 18.896 273.99 17.872 281.201 17.872C281.969 17.872 283.398 17.9787 285.489 18.192H285.809C294.001 19.3013 299.526 20.9227 302.385 23.056C303.963 24.3787 304.753 25.7653 304.753 27.216V28.944C304.625 29.2427 304.561 29.52 304.561 29.776L304.177 32.912C303.793 35.6427 303.601 37.9467 303.601 39.824C303.601 41.0187 303.707 41.9787 303.921 42.704C304.689 48.464 305.926 51.4933 307.633 51.792C308.699 52.0907 309.489 52.2613 310.001 52.304V65.936L304.497 66V65.936C296.347 66.1493 288.945 66.256 282.289 66.256ZM341.774 66C340.366 65.872 339.662 65.7653 339.662 65.68C323.534 65.8933 312.803 66 307.47 66V52.304H314.958L329.422 51.472C330.617 51.472 331.363 51.1307 331.662 50.448C332.089 49.3387 332.302 47.376 332.302 44.56C332.302 43.3227 332.259 41.232 332.174 38.288C332.174 37.9893 332.067 37.0293 331.854 35.408C331.598 34.0853 331.47 33.1467 331.47 32.592C331.47 30.6293 332.665 29.456 335.054 29.072C337.102 28.8587 339.299 28.752 341.646 28.752L347.662 28.88C349.198 34.128 349.966 39.632 349.966 45.392C349.966 47.568 349.795 49.872 349.454 52.304H352.398V65.936L341.774 66ZM323.918 83.024C323.705 82.4267 323.235 82.128 322.51 82.128L315.15 82.768C314.51 81.104 313.998 77.456 313.614 71.824C313.614 70.672 313.742 69.84 313.998 69.328C314.382 68.4747 315.875 68.048 318.478 68.048C320.483 68.048 322.446 68.24 324.366 68.624C325.433 68.8373 326.179 68.944 326.606 68.944C327.545 68.944 328.227 68.816 328.654 68.56C328.953 72.0587 329.102 75.4507 329.102 78.736C329.102 80.8267 329.081 82.1067 329.038 82.576L323.918 83.024ZM341.07 81.936C340.814 81.3387 340.323 81.04 339.598 81.04L332.238 81.68C331.641 80.0587 331.15 76.4107 330.766 70.736C330.766 69.6267 330.894 68.7947 331.15 68.24C331.491 67.4293 332.985 67.024 335.63 67.024C337.635 67.024 339.598 67.1947 341.518 67.536C342.585 67.7493 343.331 67.856 343.758 67.856C344.697 67.856 345.358 67.728 345.742 67.472C346.083 70.9707 346.254 74.384 346.254 77.712C346.254 79.76 346.233 81.0187 346.19 81.488L341.07 81.936ZM401.094 66L362.886 65.68L350.47 66V52.304H356.23C355.846 50.8107 355.569 48.8907 355.398 46.544C354.758 41.5947 354.438 37.0507 354.438 32.912C354.438 28.8587 354.886 25.936 355.782 24.144C356.849 21.7547 360.945 20.56 368.07 20.56C374.427 20.56 380.934 21.3707 387.59 22.992C389.894 23.5467 392.241 23.824 394.63 23.824C396.507 23.824 398.257 23.5893 399.878 23.12L400.902 26.512C401.158 32.1867 401.286 36.7733 401.286 40.272C401.201 41.936 400.689 43.6213 399.75 45.328C398.854 46.992 397.254 47.824 394.95 47.824H394.63C386.011 47.2693 380.955 46.992 379.462 46.992C377.841 46.992 376.497 47.0987 375.43 47.312C374.705 48.8053 374.342 50.1493 374.342 51.344C374.342 52.24 374.534 52.7093 374.918 52.752L382.15 52.624C389.19 52.624 395.569 52.5173 401.286 52.304H406.598V65.936L401.094 66ZM441.968 67.6C440.688 67.472 439.984 67.3653 439.856 67.28C439.131 67.28 437.467 66.8107 434.864 65.872C432.176 65.0187 430.427 64.592 429.616 64.592C428.891 64.592 427.397 65.3387 425.136 66.832C424.709 67.1307 423.877 67.28 422.64 67.28C420.507 67.28 417.2 66.8533 412.72 66H404.72V52.304H412.208C412.165 51.92 412.144 50.4693 412.144 47.952C411.973 41.552 411.888 37.8827 411.888 36.944C411.888 31.9947 411.653 29.1147 411.184 28.304H426.544C427.44 31.7173 427.888 36.9227 427.888 43.92C427.888 45.712 427.717 48.2507 427.376 51.536C428.229 51.8773 428.976 52.048 429.616 52.048C430.811 52.048 431.557 51.6213 431.856 50.768C432.283 49.6587 432.496 48.0587 432.496 45.968C432.496 40.848 432.347 37.136 432.048 34.832L431.664 31.696C431.664 29.7333 432.795 28.5387 435.056 28.112C437.147 27.8987 439.387 27.792 441.776 27.792C443.952 27.792 445.979 27.856 447.856 27.984V28.112C449.307 33.5307 450.032 39.4613 450.032 45.904C450.032 47.184 449.84 48.9547 449.456 51.216C450.523 51.3867 451.269 51.472 451.696 51.472C452.891 51.472 453.637 51.1307 453.936 50.448C454.363 49.3387 454.576 47.376 454.576 44.56C454.576 39.0987 454.448 35.3867 454.192 33.424L454.128 32.912C453.872 31.5893 453.744 30.6293 453.744 30.032C453.744 28.112 454.939 26.96 457.328 26.576C459.376 26.3627 461.552 26.256 463.856 26.256L469.936 26.384C471.429 31.5893 472.176 37.9253 472.176 45.392C472.176 49.3173 471.749 52.8373 470.896 55.952C468.933 62.6507 466.629 66 463.984 66C462.619 65.872 461.936 65.7653 461.936 65.68C461.253 65.68 460.443 65.5947 459.504 65.424C458.309 65.2533 457.115 65.104 455.92 64.976C454.725 64.8053 453.68 64.72 452.784 64.72C452.059 64.72 449.819 64.5707 446.064 64.272V64.4C444.869 66.5333 443.504 67.6 441.968 67.6Z" fill="#E61C25"/>
</svg>
